<mxfile host="app.diagrams.net" modified="2023-11-07T15:03:06.014Z" agent="Mozilla/5.0 (Windows NT 10.0; Win64; x64) AppleWebKit/537.36 (KHTML, like Gecko) Chrome/119.0.0.0 Safari/537.36" etag="AMsCakHhrmhzT2x1LLFQ" version="22.0.8" type="device">
  <diagram name="Page-1" id="jNDmu_4M6AhFxplmJnjj">
    <mxGraphModel dx="793" dy="425" grid="1" gridSize="10" guides="1" tooltips="1" connect="1" arrows="1" fold="1" page="1" pageScale="1" pageWidth="827" pageHeight="1169" math="0" shadow="0">
      <root>
        <mxCell id="0" />
        <mxCell id="1" parent="0" />
        <mxCell id="uxyARD76VYQH4xLrif9j-1" value="users" style="rounded=0;whiteSpace=wrap;html=1;" vertex="1" parent="1">
          <mxGeometry x="40" y="40" width="160" height="20" as="geometry" />
        </mxCell>
        <mxCell id="uxyARD76VYQH4xLrif9j-2" value="nickname&lt;span style=&quot;white-space: pre;&quot;&gt;&#x9;&lt;/span&gt;&lt;span style=&quot;white-space: pre;&quot;&gt;&#x9;&lt;/span&gt;&lt;span style=&quot;white-space: pre;&quot;&gt;&#x9;&lt;/span&gt;texte" style="rounded=0;whiteSpace=wrap;html=1;align=left;" vertex="1" parent="1">
          <mxGeometry x="40" y="60" width="160" height="60" as="geometry" />
        </mxCell>
        <mxCell id="uxyARD76VYQH4xLrif9j-3" value="attemps" style="rounded=0;whiteSpace=wrap;html=1;" vertex="1" parent="1">
          <mxGeometry x="400" y="40" width="160" height="20" as="geometry" />
        </mxCell>
        <mxCell id="uxyARD76VYQH4xLrif9j-4" value="start_date&lt;span style=&quot;white-space: pre;&quot;&gt;&#x9;d&lt;/span&gt;ate heure&lt;br&gt;time&lt;span style=&quot;white-space: pre;&quot;&gt;&#x9;&lt;/span&gt;&lt;span style=&quot;white-space: pre;&quot;&gt;&#x9;&lt;/span&gt;&lt;span style=&quot;white-space: pre;&quot;&gt;&#x9;&lt;/span&gt;time&lt;br&gt;nb_ok&lt;span style=&quot;white-space: pre;&quot;&gt;&#x9;&lt;/span&gt;&lt;span style=&quot;white-space: pre;&quot;&gt;&#x9;&lt;/span&gt;number&lt;br&gt;nb_total&lt;span style=&quot;white-space: pre;&quot;&gt;&#x9;&lt;/span&gt;&lt;span style=&quot;white-space: pre;&quot;&gt;&#x9;&lt;/span&gt;number" style="rounded=0;whiteSpace=wrap;html=1;align=left;" vertex="1" parent="1">
          <mxGeometry x="400" y="60" width="160" height="60" as="geometry" />
        </mxCell>
        <mxCell id="uxyARD76VYQH4xLrif9j-5" value="games" style="rounded=0;whiteSpace=wrap;html=1;" vertex="1" parent="1">
          <mxGeometry x="600" y="200" width="160" height="20" as="geometry" />
        </mxCell>
        <mxCell id="uxyARD76VYQH4xLrif9j-6" value="exercise&lt;span style=&quot;white-space: pre;&quot;&gt;&#x9;&lt;/span&gt;&lt;span style=&quot;white-space: pre;&quot;&gt;&#x9;&lt;/span&gt;&lt;span style=&quot;white-space: pre;&quot;&gt;&#x9;&lt;/span&gt;texte" style="rounded=0;whiteSpace=wrap;html=1;align=left;" vertex="1" parent="1">
          <mxGeometry x="600" y="220" width="160" height="60" as="geometry" />
        </mxCell>
        <mxCell id="uxyARD76VYQH4xLrif9j-10" value="make" style="rounded=0;whiteSpace=wrap;html=1;" vertex="1" parent="1">
          <mxGeometry x="240" y="60" width="120" height="20" as="geometry" />
        </mxCell>
        <mxCell id="uxyARD76VYQH4xLrif9j-11" value="" style="rounded=0;whiteSpace=wrap;html=1;align=left;" vertex="1" parent="1">
          <mxGeometry x="240" y="80" width="120" height="20" as="geometry" />
        </mxCell>
        <mxCell id="uxyARD76VYQH4xLrif9j-12" value="from" style="rounded=0;whiteSpace=wrap;html=1;" vertex="1" parent="1">
          <mxGeometry x="620" y="60" width="120" height="20" as="geometry" />
        </mxCell>
        <mxCell id="uxyARD76VYQH4xLrif9j-13" value="" style="rounded=0;whiteSpace=wrap;html=1;align=left;" vertex="1" parent="1">
          <mxGeometry x="620" y="80" width="120" height="20" as="geometry" />
        </mxCell>
        <mxCell id="uxyARD76VYQH4xLrif9j-14" value="" style="endArrow=none;html=1;rounded=0;entryX=0;entryY=0.5;entryDx=0;entryDy=0;exitX=1;exitY=0.5;exitDx=0;exitDy=0;" edge="1" parent="1" source="uxyARD76VYQH4xLrif9j-2" target="uxyARD76VYQH4xLrif9j-11">
          <mxGeometry width="50" height="50" relative="1" as="geometry">
            <mxPoint x="220" y="180" as="sourcePoint" />
            <mxPoint x="270" y="130" as="targetPoint" />
          </mxGeometry>
        </mxCell>
        <mxCell id="uxyARD76VYQH4xLrif9j-19" value="0,n" style="edgeLabel;html=1;align=center;verticalAlign=middle;resizable=0;points=[];" vertex="1" connectable="0" parent="uxyARD76VYQH4xLrif9j-14">
          <mxGeometry x="-0.0038" y="-1" relative="1" as="geometry">
            <mxPoint as="offset" />
          </mxGeometry>
        </mxCell>
        <mxCell id="uxyARD76VYQH4xLrif9j-15" value="" style="endArrow=none;html=1;rounded=0;entryX=1;entryY=0.5;entryDx=0;entryDy=0;exitX=0;exitY=0.5;exitDx=0;exitDy=0;" edge="1" parent="1" source="uxyARD76VYQH4xLrif9j-4" target="uxyARD76VYQH4xLrif9j-11">
          <mxGeometry width="50" height="50" relative="1" as="geometry">
            <mxPoint x="310" y="170" as="sourcePoint" />
            <mxPoint x="360" y="120" as="targetPoint" />
          </mxGeometry>
        </mxCell>
        <mxCell id="uxyARD76VYQH4xLrif9j-20" value="1,1" style="edgeLabel;html=1;align=center;verticalAlign=middle;resizable=0;points=[];" vertex="1" connectable="0" parent="uxyARD76VYQH4xLrif9j-15">
          <mxGeometry x="0.0048" relative="1" as="geometry">
            <mxPoint as="offset" />
          </mxGeometry>
        </mxCell>
        <mxCell id="uxyARD76VYQH4xLrif9j-16" value="" style="endArrow=none;html=1;rounded=0;exitX=0.5;exitY=1;exitDx=0;exitDy=0;entryX=0.5;entryY=0;entryDx=0;entryDy=0;" edge="1" parent="1" source="uxyARD76VYQH4xLrif9j-13" target="uxyARD76VYQH4xLrif9j-5">
          <mxGeometry width="50" height="50" relative="1" as="geometry">
            <mxPoint x="440" y="330" as="sourcePoint" />
            <mxPoint x="590" y="120" as="targetPoint" />
          </mxGeometry>
        </mxCell>
        <mxCell id="uxyARD76VYQH4xLrif9j-21" value="1,n" style="edgeLabel;html=1;align=center;verticalAlign=middle;resizable=0;points=[];" vertex="1" connectable="0" parent="uxyARD76VYQH4xLrif9j-16">
          <mxGeometry x="-0.0071" y="1" relative="1" as="geometry">
            <mxPoint as="offset" />
          </mxGeometry>
        </mxCell>
        <mxCell id="uxyARD76VYQH4xLrif9j-17" value="" style="endArrow=none;html=1;rounded=0;entryX=0;entryY=0.5;entryDx=0;entryDy=0;exitX=1;exitY=0.5;exitDx=0;exitDy=0;" edge="1" parent="1" source="uxyARD76VYQH4xLrif9j-4" target="uxyARD76VYQH4xLrif9j-13">
          <mxGeometry width="50" height="50" relative="1" as="geometry">
            <mxPoint x="420" y="310" as="sourcePoint" />
            <mxPoint x="631.2500000000001" y="150" as="targetPoint" />
          </mxGeometry>
        </mxCell>
        <mxCell id="uxyARD76VYQH4xLrif9j-24" value="1,1" style="edgeLabel;html=1;align=center;verticalAlign=middle;resizable=0;points=[];" vertex="1" connectable="0" parent="uxyARD76VYQH4xLrif9j-17">
          <mxGeometry x="-0.0442" relative="1" as="geometry">
            <mxPoint as="offset" />
          </mxGeometry>
        </mxCell>
        <mxCell id="uxyARD76VYQH4xLrif9j-25" value="Date" style="rounded=0;whiteSpace=wrap;html=1;" vertex="1" parent="1">
          <mxGeometry x="40" y="220" width="80" height="20" as="geometry" />
        </mxCell>
        <mxCell id="uxyARD76VYQH4xLrif9j-26" value="07.11.2023" style="rounded=0;whiteSpace=wrap;html=1;" vertex="1" parent="1">
          <mxGeometry x="120" y="220" width="200" height="20" as="geometry" />
        </mxCell>
        <mxCell id="uxyARD76VYQH4xLrif9j-27" value="Version" style="rounded=0;whiteSpace=wrap;html=1;" vertex="1" parent="1">
          <mxGeometry x="40" y="260" width="80" height="20" as="geometry" />
        </mxCell>
        <mxCell id="uxyARD76VYQH4xLrif9j-28" value="1.0" style="rounded=0;whiteSpace=wrap;html=1;" vertex="1" parent="1">
          <mxGeometry x="120" y="260" width="200" height="20" as="geometry" />
        </mxCell>
        <mxCell id="uxyARD76VYQH4xLrif9j-29" value="Titre" style="rounded=0;whiteSpace=wrap;html=1;" vertex="1" parent="1">
          <mxGeometry x="40" y="240" width="80" height="20" as="geometry" />
        </mxCell>
        <mxCell id="uxyARD76VYQH4xLrif9j-30" value="braintraining_forstudents_mcd" style="rounded=0;whiteSpace=wrap;html=1;" vertex="1" parent="1">
          <mxGeometry x="120" y="240" width="200" height="20" as="geometry" />
        </mxCell>
        <mxCell id="uxyARD76VYQH4xLrif9j-31" value="Auteur" style="rounded=0;whiteSpace=wrap;html=1;" vertex="1" parent="1">
          <mxGeometry x="40" y="200" width="80" height="20" as="geometry" />
        </mxCell>
        <mxCell id="uxyARD76VYQH4xLrif9j-32" value="Sacha Jaccard" style="rounded=0;whiteSpace=wrap;html=1;" vertex="1" parent="1">
          <mxGeometry x="120" y="200" width="200" height="20" as="geometry" />
        </mxCell>
      </root>
    </mxGraphModel>
  </diagram>
</mxfile>
